<svg xmlns="http://www.w3.org/2000/svg" width="296.126953125" height="573.7073974609375" viewBox="-108.094970703125 -283.4903259277344 296.126953125 573.7073974609375"><title>Neo4j Graph Visualization</title><desc>Created using Neo4j (http://www.neo4j.com/)</desc><g class="layer relationships"><g class="relationship" transform="translate(159.03199096443106 261.21705084991873) rotate(268.6625307321294)"><path class="outline" fill="#A5ABB6" stroke="none" d="M 25 0.5 L 44.75123982065661 0.5 L 44.75123982065661 -0.5 L 25 -0.5 Z M 91.64186482065661 0.5 L 111.39310464131322 0.5 L 111.39310464131322 3.5 L 118.39310464131322 0 L 111.39310464131322 -3.5 L 111.39310464131322 -0.5 L 91.64186482065661 -0.5 Z"/><text text-anchor="middle" pointer-events="none" font-size="8px" fill="#000000" x="68.19655232065661" y="3" transform="rotate(180 68.19655232065661 0)" font-family="sans-serif">DIRECTED</text></g><g class="relationship" transform="translate(11.499950389850355 30.628800387716375) rotate(294.99514791057146)"><path class="outline" fill="#A5ABB6" stroke="none" d="M 24.018736134675446,6.953439040707552 L 24.277555179777966,5.987513214418485 A 258.551023244087 258.551023244087 0 0 0 62.96285487442143,13.251364008799044 L 62.85365929322654,14.2453842928212 A 259.551023244087 259.551023244087 0 0 1 24.018736134675446,6.953439040707552 Z M 114.64620218650519,14.735855792374764 L 114.55585109573582,13.739945816324337 A 258.551023244087 258.551023244087 0 0 0 153.37177676599998,7.210025817739869 L 152.65033743236552,4.298063371573185 L 160.28659569599463,6.0119944469538975 L 154.33369587751258,11.09264241262878 L 153.61225654387812,8.180679966462097 A 259.551023244087 259.551023244087 0 0 1 114.64620218650519,14.735855792374764"/><text text-anchor="middle" pointer-events="none" font-size="8px" fill="#000000" x="88.74240034399165" y="18.285810694193742" font-family="sans-serif">PRODUCED</text></g><g class="relationship" transform="translate(11.499950389850355 30.628800387716375) rotate(294.99514791057146)"><path class="outline" fill="#A5ABB6" stroke="none" d="M 24.018736134675446,-6.953439040707552 L 24.277555179777966,-5.987513214418485 A 258.551023244087 258.551023244087 0 0 1 70.91575529710656,-14.00086743348794 L 70.83731921677499,-14.997786578304726 A 259.551023244087 259.551023244087 0 0 0 24.018736134675446,-6.953439040707552 Z M 106.64972496684638,-15.336927376760059 L 106.59018275950851,-14.338701587900005 A 258.551023244087 258.551023244087 0 0 1 153.37177676599998,-7.210025817739869 L 152.65033743236552,-4.298063371573185 L 160.28659569599463,-6.0119944469538975 L 154.33369587751258,-11.09264241262878 L 153.61225654387812,-8.180679966462097 A 259.551023244087 259.551023244087 0 0 0 106.64972496684638,-15.336927376760059"/><text text-anchor="middle" pointer-events="none" font-size="8px" fill="#000000" x="88.74240034399153" y="-12.285810694193742" font-family="sans-serif">WROTE</text></g><g class="relationship" transform="translate(11.499950389850355 30.628800387716375) rotate(391.17458860001784)"><path class="outline" fill="#A5ABB6" stroke="none" d="M 25 0.5 L 57.31491885628405 0.5 L 57.31491885628405 -0.5 L 25 -0.5 Z M 104.20554385628405 0.5 L 136.5204627125681 0.5 L 136.5204627125681 3.5 L 143.5204627125681 0 L 136.5204627125681 -3.5 L 136.5204627125681 -0.5 L 104.20554385628405 -0.5 Z"/><text text-anchor="middle" pointer-events="none" font-size="8px" fill="#000000" x="80.76023135628405" y="3" font-family="sans-serif">DIRECTED</text></g><g class="relationship" transform="translate(11.499950389850355 30.628800387716375) rotate(262.6327028437893)"><path class="outline" fill="#A5ABB6" stroke="none" d="M 25 0.5 L 44.88133179917921 0.5 L 44.88133179917921 -0.5 L 25 -0.5 Z M 91.77195679917921 0.5 L 111.65328859835842 0.5 L 111.65328859835842 3.5 L 118.65328859835842 0 L 111.65328859835842 -3.5 L 111.65328859835842 -0.5 L 91.77195679917921 -0.5 Z"/><text text-anchor="middle" pointer-events="none" font-size="8px" fill="#000000" x="68.32664429917921" y="3" transform="rotate(180 68.32664429917921 0)" font-family="sans-serif">DIRECTED</text></g><g class="relationship" transform="translate(11.499950389850355 30.628800387716375) rotate(219.205478394335)"><path class="outline" fill="#A5ABB6" stroke="none" d="M 25 0.5 L 31.511771849716773 0.5 L 31.511771849716773 -0.5 L 25 -0.5 Z M 78.40239684971678 0.5 L 84.91416869943355 0.5 L 84.91416869943355 3.5 L 91.91416869943355 0 L 84.91416869943355 -3.5 L 84.91416869943355 -0.5 L 78.40239684971678 -0.5 Z"/><text text-anchor="middle" pointer-events="none" font-size="8px" fill="#000000" x="54.95708434971677" y="3" transform="rotate(180 54.95708434971677 0)" font-family="sans-serif">DIRECTED</text></g><g class="relationship" transform="translate(11.499950389850355 30.628800387716375) rotate(440.060515661058)"><path class="outline" fill="#A5ABB6" stroke="none" d="M 25 0.5 L 34.27235365620194 0.5 L 34.27235365620194 -0.5 L 25 -0.5 Z M 81.16297865620194 0.5 L 90.43533231240389 0.5 L 90.43533231240389 3.5 L 97.43533231240389 0 L 90.43533231240389 -3.5 L 90.43533231240389 -0.5 L 81.16297865620194 -0.5 Z"/><text text-anchor="middle" pointer-events="none" font-size="8px" fill="#000000" x="57.71766615620194" y="3" font-family="sans-serif">DIRECTED</text></g><g class="relationship" transform="translate(103.14616074704992 -7.044145690986371) rotate(263.9808041820478)"><path class="outline" fill="#A5ABB6" stroke="none" d="M 24.018736134675446,6.953439040707552 L 24.277555179777966,5.987513214418485 A 152.03079231131687 152.03079231131687 0 0 0 35.96589814709118,8.630454043443876 L 35.78396052048037,9.613764116626896 A 153.03079231131687 153.03079231131687 0 0 1 24.018736134675446,6.953439040707552 Z M 87.48132793405607,10.29705135412047 L 87.32544225966477,9.309276249899085 A 152.03079231131687 152.03079231131687 0 0 0 99.07955386654812,6.976175763379499 L 98.37995478555453,4.058889160065915 L 106.00315578777877,5.829992341613359 L 100.01235264120626,10.865891234464277 L 99.31275356021267,7.948604631150693 A 153.03079231131687 153.03079231131687 0 0 1 87.48132793405607,10.29705135412047"/><text text-anchor="middle" pointer-events="none" font-size="8px" fill="#000000" x="61.610187013931714" y="14.654515731596746" transform="rotate(180 61.610187013931714 11.654515731596746)" font-family="sans-serif">PRODUCED</text></g><g class="relationship" transform="translate(103.14616074704992 -7.044145690986371) rotate(263.9808041820478)"><path class="outline" fill="#A5ABB6" stroke="none" d="M 24.018736134675446,-6.953439040707552 L 24.277555179777966,-5.987513214418485 A 152.03079231131687 152.03079231131687 0 0 1 43.84489381788654,-9.875456590992485 L 43.71478119035001,-10.866955811443802 A 153.03079231131687 153.03079231131687 0 0 0 24.018736134675446,-6.953439040707552 Z M 79.52015642615116,-11.340197625414135 L 79.41629408240897,-10.345605943590698 A 152.03079231131687 152.03079231131687 0 0 1 99.07955386654812,-6.976175763379499 L 98.37995478555453,-4.058889160065915 L 106.00315578777877,-5.829992341613359 L 100.01235264120626,-10.865891234464277 L 99.31275356021267,-7.948604631150693 A 153.03079231131687 153.03079231131687 0 0 0 79.52015642615116,-11.340197625414135"/><text text-anchor="middle" pointer-events="none" font-size="8px" fill="#000000" x="61.61018701393168" y="-8.654515731596746" transform="rotate(180 61.61018701393168 -11.654515731596746)" font-family="sans-serif">WROTE</text></g><g class="relationship" transform="translate(103.14616074704992 -7.044145690986371) rotate(427.1872384772391)"><path class="outline" fill="#A5ABB6" stroke="none" d="M 25 0.5 L 40.80815870507931 0.5 L 40.80815870507931 -0.5 L 25 -0.5 Z M 87.69878370507931 0.5 L 103.50694241015862 0.5 L 103.50694241015862 3.5 L 110.50694241015862 0 L 103.50694241015862 -3.5 L 103.50694241015862 -0.5 L 87.69878370507931 -0.5 Z"/><text text-anchor="middle" pointer-events="none" font-size="8px" fill="#000000" x="64.25347120507931" y="3" font-family="sans-serif">DIRECTED</text></g><g class="relationship" transform="translate(103.14616074704992 -7.044145690986371) rotate(223.59432399453465)"><path class="outline" fill="#A5ABB6" stroke="none" d="M 25 0.5 L 49.04246872150989 0.5 L 49.04246872150989 -0.5 L 25 -0.5 Z M 95.93309372150989 0.5 L 119.97556244301978 0.5 L 119.97556244301978 3.5 L 126.97556244301978 0 L 119.97556244301978 -3.5 L 119.97556244301978 -0.5 L 95.93309372150989 -0.5 Z"/><text text-anchor="middle" pointer-events="none" font-size="8px" fill="#000000" x="72.48778122150989" y="3" transform="rotate(180 72.48778122150989 0)" font-family="sans-serif">DIRECTED</text></g><g class="relationship" transform="translate(103.14616074704992 -7.044145690986371) rotate(191.24361298729548)"><path class="outline" fill="#A5ABB6" stroke="none" d="M 25 0.5 L 65.95835314969767 0.5 L 65.95835314969767 -0.5 L 25 -0.5 Z M 112.84897814969767 0.5 L 153.80733129939534 0.5 L 153.80733129939534 3.5 L 160.80733129939534 0 L 153.80733129939534 -3.5 L 153.80733129939534 -0.5 L 112.84897814969767 -0.5 Z"/><text text-anchor="middle" pointer-events="none" font-size="8px" fill="#000000" x="89.40366564969767" y="3" transform="rotate(180 89.40366564969767 0)" font-family="sans-serif">DIRECTED</text></g><g class="relationship" transform="translate(103.14616074704992 -7.044145690986371) rotate(474.01398387827385)"><path class="outline" fill="#A5ABB6" stroke="none" d="M 25 0.5 L 59.688473737517256 0.5 L 59.688473737517256 -0.5 L 25 -0.5 Z M 106.57909873751726 0.5 L 141.2675724750345 0.5 L 141.2675724750345 3.5 L 148.2675724750345 0 L 141.2675724750345 -3.5 L 141.2675724750345 -0.5 L 106.57909873751726 -0.5 Z"/><text text-anchor="middle" pointer-events="none" font-size="8px" fill="#000000" x="83.13378623751726" y="3" transform="rotate(180 83.13378623751726 0)" font-family="sans-serif">DIRECTED</text></g><g class="relationship" transform="translate(3.648619884023624 -254.49033277367903) rotate(413.93354256568705)"><path class="outline" fill="#A5ABB6" stroke="none" d="M 25 0.5 L 45.951939600373194 0.5 L 45.951939600373194 -0.5 L 25 -0.5 Z M 92.8425646003732 0.5 L 113.79450420074639 0.5 L 113.79450420074639 3.5 L 120.79450420074639 0 L 113.79450420074639 -3.5 L 113.79450420074639 -0.5 L 92.8425646003732 -0.5 Z"/><text text-anchor="middle" pointer-events="none" font-size="8px" fill="#000000" x="69.3972521003732" y="3" font-family="sans-serif">DIRECTED</text></g></g><g class="layer nodes"><g class="node" aria-label="graph-node105" transform="translate(155.68503495140405,117.86301238527881)"><circle class="outline" cx="0" cy="0" r="25" fill="#F79767" stroke="#f36924" stroke-width="2px"/><text class="caption" text-anchor="middle" pointer-events="none" x="0" y="0" font-size="10px" fill="#FFFFFF" font-family="sans-serif"> Cloud</text><text class="caption" text-anchor="middle" pointer-events="none" x="0" y="10" font-size="10px" fill="#FFFFFF" font-family="sans-serif"> Atlas</text></g><g class="node" aria-label="graph-node108" transform="translate(159.03199096443106,261.21705084991873)"><circle class="outline" cx="0" cy="0" r="25" fill="#C990C0" stroke="#b261a5" stroke-width="2px"/><text class="caption" text-anchor="middle" pointer-events="none" x="0" y="0" font-size="10px" fill="#FFFFFF" font-family="sans-serif"> Tom</text><text class="caption" text-anchor="middle" pointer-events="none" x="0" y="10" font-size="10px" fill="#FFFFFF" font-family="sans-serif"> Tykwer</text></g><g class="node" aria-label="graph-node6" transform="translate(11.499950389850355,30.628800387716375)"><circle class="outline" cx="0" cy="0" r="25" fill="#C990C0" stroke="#b261a5" stroke-width="2px"/><text class="caption" text-anchor="middle" pointer-events="none" x="0" y="0" font-size="10px" fill="#FFFFFF" font-family="sans-serif"> Lana</text><text class="caption" text-anchor="middle" pointer-events="none" x="0" y="10" font-size="10px" fill="#FFFFFF" font-family="sans-serif"> Wach…</text></g><g class="node" aria-label="graph-node5" transform="translate(103.14616074704992,-7.044145690986371)"><circle class="outline" cx="0" cy="0" r="25" fill="#C990C0" stroke="#b261a5" stroke-width="2px"/><text class="caption" text-anchor="middle" pointer-events="none" x="0" y="0" font-size="10px" fill="#FFFFFF" font-family="sans-serif"> Lilly</text><text class="caption" text-anchor="middle" pointer-events="none" x="0" y="10" font-size="10px" fill="#FFFFFF" font-family="sans-serif"> Wach…</text></g><g class="node" aria-label="graph-node116" transform="translate(89.4812322379314,-136.63957922646892)"><circle class="outline" cx="0" cy="0" r="25" fill="#F79767" stroke="#f36924" stroke-width="2px"/><text class="caption" text-anchor="middle" pointer-events="none" x="0" y="0" font-size="10px" fill="#FFFFFF" font-family="sans-serif"> V for</text><text class="caption" text-anchor="middle" pointer-events="none" x="0" y="10" font-size="10px" fill="#FFFFFF" font-family="sans-serif"> Vende…</text></g><g class="node" aria-label="graph-node25" transform="translate(3.648619884023624,-254.49033277367903)"><circle class="outline" cx="0" cy="0" r="25" fill="#C990C0" stroke="#b261a5" stroke-width="2px"/><text class="caption" text-anchor="middle" pointer-events="none" x="0" y="0" font-size="10px" fill="#FFFFFF" font-family="sans-serif"> James</text><text class="caption" text-anchor="middle" pointer-events="none" x="0" y="10" font-size="10px" fill="#FFFFFF" font-family="sans-serif"> Marsh…</text></g><g class="node" aria-label="graph-node10" transform="translate(-6.920647197386683,-111.83856046961237)"><circle class="outline" cx="0" cy="0" r="25" fill="#F79767" stroke="#f36924" stroke-width="2px"/><text class="caption" text-anchor="middle" pointer-events="none" x="0" y="-5" font-size="10px" fill="#FFFFFF" font-family="sans-serif"> The</text><text class="caption" text-anchor="middle" pointer-events="none" x="0" y="5" font-size="10px" fill="#FFFFFF" font-family="sans-serif"> Matrix</text><text class="caption" text-anchor="middle" pointer-events="none" x="0" y="15" font-size="10px" fill="#FFFFFF" font-family="sans-serif"> Rev…</text></g><g class="node" aria-label="graph-node9" transform="translate(-79.09497450931399,-43.27304279088358)"><circle class="outline" cx="0" cy="0" r="25" fill="#F79767" stroke="#f36924" stroke-width="2px"/><text class="caption" text-anchor="middle" pointer-events="none" x="0" y="-5" font-size="10px" fill="#FFFFFF" font-family="sans-serif"> The</text><text class="caption" text-anchor="middle" pointer-events="none" x="0" y="5" font-size="10px" fill="#FFFFFF" font-family="sans-serif"> Matrix</text><text class="caption" text-anchor="middle" pointer-events="none" x="0" y="15" font-size="10px" fill="#FFFFFF" font-family="sans-serif"> Rel…</text></g><g class="node" aria-label="graph-node0" transform="translate(32.633259595828854,151.22645310307098)"><circle class="outline" cx="0" cy="0" r="25" fill="#F79767" stroke="#f36924" stroke-width="2px"/><text class="caption" text-anchor="middle" pointer-events="none" x="0" y="0" font-size="10px" fill="#FFFFFF" font-family="sans-serif"> The</text><text class="caption" text-anchor="middle" pointer-events="none" x="0" y="10" font-size="10px" fill="#FFFFFF" font-family="sans-serif"> Matrix</text></g></g></svg>