<svg xmlns="http://www.w3.org/2000/svg" width="715.1016845703125" height="708.1927490234375" viewBox="-366.4676208496094 -330.2359313964844 715.1016845703125 708.1927490234375"><title>Neo4j Graph Visualization</title><desc>Created using Neo4j (http://www.neo4j.com/)</desc><g class="layer relationships"><g class="relationship" transform="translate(-7.357312873084902 348.95683744475826) rotate(357.22270667651287)"><path class="outline" fill="#A5ABB6" stroke="none" d="M 25 0.5 L 45.61741877723624 0.5 L 45.61741877723624 -0.5 L 25 -0.5 Z M 91.17991877723624 0.5 L 111.79733755447248 0.5 L 111.79733755447248 3.5 L 118.79733755447248 0 L 111.79733755447248 -3.5 L 111.79733755447248 -0.5 L 91.17991877723624 -0.5 Z"/><text text-anchor="middle" pointer-events="none" font-size="8px" fill="#000000" x="68.39866877723624" y="3" font-family="sans-serif">ACTED_IN</text></g><g class="relationship" transform="translate(140.9371761902876 198.15745316617486) rotate(451.85808255882864)"><path class="outline" fill="#A5ABB6" stroke="none" d="M 25 0.5 L 45.67250181500552 0.5 L 45.67250181500552 -0.5 L 25 -0.5 Z M 91.23500181500552 0.5 L 111.90750363001104 0.5 L 111.90750363001104 3.5 L 118.90750363001104 0 L 111.90750363001104 -3.5 L 111.90750363001104 -0.5 L 91.23500181500552 -0.5 Z"/><text text-anchor="middle" pointer-events="none" font-size="8px" fill="#000000" x="68.45375181500552" y="3" transform="rotate(180 68.45375181500552 0)" font-family="sans-serif">ACTED_IN</text></g><g class="relationship" transform="translate(265.3808449824494 277.31529754208833) rotate(513.3926699813586)"><path class="outline" fill="#A5ABB6" stroke="none" d="M 25 0.5 L 45.91993720604262 0.5 L 45.91993720604262 -0.5 L 25 -0.5 Z M 91.48243720604262 0.5 L 112.40237441208524 0.5 L 112.40237441208524 3.5 L 119.40237441208524 0 L 112.40237441208524 -3.5 L 112.40237441208524 -0.5 L 91.48243720604262 -0.5 Z"/><text text-anchor="middle" pointer-events="none" font-size="8px" fill="#000000" x="68.70118720604262" y="3" transform="rotate(180 68.70118720604262 0)" font-family="sans-serif">ACTED_IN</text></g><g class="relationship" transform="translate(319.6340592756513 -19.821790254027487) rotate(254.30508221978937)"><path class="outline" fill="#A5ABB6" stroke="none" d="M 25 0.5 L 45.47861253729016 0.5 L 45.47861253729016 -0.5 L 25 -0.5 Z M 91.04111253729016 0.5 L 111.51972507458032 0.5 L 111.51972507458032 3.5 L 118.51972507458032 0 L 111.51972507458032 -3.5 L 111.51972507458032 -0.5 L 91.04111253729016 -0.5 Z"/><text text-anchor="middle" pointer-events="none" font-size="8px" fill="#000000" x="68.25986253729016" y="3" transform="rotate(180 68.25986253729016 0)" font-family="sans-serif">ACTED_IN</text></g><g class="relationship" transform="translate(287.08624025081565 -301.23594648840134) rotate(452.5088607751421)"><path class="outline" fill="#A5ABB6" stroke="none" d="M 25 0.5 L 45.41019741194822 0.5 L 45.41019741194822 -0.5 L 25 -0.5 Z M 90.97269741194822 0.5 L 111.38289482389644 0.5 L 111.38289482389644 3.5 L 118.38289482389644 0 L 111.38289482389644 -3.5 L 111.38289482389644 -0.5 L 90.97269741194822 -0.5 Z"/><text text-anchor="middle" pointer-events="none" font-size="8px" fill="#000000" x="68.19144741194822" y="3" transform="rotate(180 68.19144741194822 0)" font-family="sans-serif">ACTED_IN</text></g><g class="relationship" transform="translate(140.07436151614155 -126.45569654047031) rotate(347.370266519595)"><path class="outline" fill="#A5ABB6" stroke="none" d="M 25 0.5 L 45.831353856306606 0.5 L 45.831353856306606 -0.5 L 25 -0.5 Z M 91.3938538563066 0.5 L 112.22520771261321 0.5 L 112.22520771261321 3.5 L 119.22520771261321 0 L 112.22520771261321 -3.5 L 112.22520771261321 -0.5 L 91.3938538563066 -0.5 Z"/><text text-anchor="middle" pointer-events="none" font-size="8px" fill="#000000" x="68.6126038563066" y="3" font-family="sans-serif">ACTED_IN</text></g><g class="relationship" transform="translate(166.2753302762456 -250.30855934142903) rotate(398.86980794378496)"><path class="outline" fill="#A5ABB6" stroke="none" d="M 25 0.5 L 47.27276730110782 0.5 L 47.27276730110782 -0.5 L 25 -0.5 Z M 92.83526730110782 0.5 L 115.10803460221564 0.5 L 115.10803460221564 3.5 L 122.10803460221564 0 L 115.10803460221564 -3.5 L 115.10803460221564 -0.5 L 92.83526730110782 -0.5 Z"/><text text-anchor="middle" pointer-events="none" font-size="8px" fill="#000000" x="70.05401730110782" y="3" font-family="sans-serif">ACTED_IN</text></g><g class="relationship" transform="translate(-140.61720426280795 -52.402113681875726) rotate(230.8195295167733)"><path class="outline" fill="#A5ABB6" stroke="none" d="M 25 0.5 L 57.11195012152869 0.5 L 57.11195012152869 -0.5 L 25 -0.5 Z M 102.6744501215287 0.5 L 134.7864002430574 0.5 L 134.7864002430574 3.5 L 141.7864002430574 0 L 134.7864002430574 -3.5 L 134.7864002430574 -0.5 L 102.6744501215287 -0.5 Z"/><text text-anchor="middle" pointer-events="none" font-size="8px" fill="#000000" x="79.8932001215287" y="3" transform="rotate(180 79.8932001215287 0)" font-family="sans-serif">ACTED_IN</text></g><g class="relationship" transform="translate(-140.61720426280795 -52.402113681875726) rotate(495.45484418118923)"><path class="outline" fill="#A5ABB6" stroke="none" d="M 25 0.5 L 72.5962111442935 0.5 L 72.5962111442935 -0.5 L 25 -0.5 Z M 118.1587111442935 0.5 L 165.754922288587 0.5 L 165.754922288587 3.5 L 172.754922288587 0 L 165.754922288587 -3.5 L 165.754922288587 -0.5 L 118.1587111442935 -0.5 Z"/><text text-anchor="middle" pointer-events="none" font-size="8px" fill="#000000" x="95.3774611442935" y="3" transform="rotate(180 95.3774611442935 0)" font-family="sans-serif">ACTED_IN</text></g><g class="relationship" transform="translate(-140.61720426280795 -52.402113681875726) rotate(467.43207691866746)"><path class="outline" fill="#A5ABB6" stroke="none" d="M 25 0.5 L 43.42586177793311 0.5 L 43.42586177793311 -0.5 L 25 -0.5 Z M 88.98836177793311 0.5 L 107.41422355586622 0.5 L 107.41422355586622 3.5 L 114.41422355586622 0 L 107.41422355586622 -3.5 L 107.41422355586622 -0.5 L 88.98836177793311 -0.5 Z"/><text text-anchor="middle" pointer-events="none" font-size="8px" fill="#000000" x="66.20711177793311" y="3" transform="rotate(180 66.20711177793311 0)" font-family="sans-serif">ACTED_IN</text></g><g class="relationship" transform="translate(-337.46763476545783 -32.9601475048903) rotate(301.5951000569951)"><path class="outline" fill="#A5ABB6" stroke="none" d="M 25 0.5 L 61.02388335539456 0.5 L 61.02388335539456 -0.5 L 25 -0.5 Z M 106.58638335539456 0.5 L 142.61026671078912 0.5 L 142.61026671078912 3.5 L 149.61026671078912 0 L 142.61026671078912 -3.5 L 142.61026671078912 -0.5 L 106.58638335539456 -0.5 Z"/><text text-anchor="middle" pointer-events="none" font-size="8px" fill="#000000" x="83.80513335539456" y="3" font-family="sans-serif">ACTED_IN</text></g><g class="relationship" transform="translate(-337.46763476545783 -32.9601475048903) rotate(424.88530672823447)"><path class="outline" fill="#A5ABB6" stroke="none" d="M 25 0.5 L 39.58439446857889 0.5 L 39.58439446857889 -0.5 L 25 -0.5 Z M 85.14689446857889 0.5 L 99.73128893715779 0.5 L 99.73128893715779 3.5 L 106.73128893715779 0 L 99.73128893715779 -3.5 L 99.73128893715779 -0.5 L 85.14689446857889 -0.5 Z"/><text text-anchor="middle" pointer-events="none" font-size="8px" fill="#000000" x="62.36564446857889" y="3" font-family="sans-serif">ACTED_IN</text></g><g class="relationship" transform="translate(-337.46763476545783 -32.9601475048903) rotate(396.21538904815543)"><path class="outline" fill="#A5ABB6" stroke="none" d="M 25 0.5 L 69.82999215937434 0.5 L 69.82999215937434 -0.5 L 25 -0.5 Z M 115.39249215937434 0.5 L 160.22248431874868 0.5 L 160.22248431874868 3.5 L 167.22248431874868 0 L 160.22248431874868 -3.5 L 160.22248431874868 -0.5 L 115.39249215937434 -0.5 Z"/><text text-anchor="middle" pointer-events="none" font-size="8px" fill="#000000" x="92.61124215937434" y="3" font-family="sans-serif">ACTED_IN</text></g><g class="relationship" transform="translate(-239.9232999188255 -52.42232686699284) rotate(267.3142809207636)"><path class="outline" fill="#A5ABB6" stroke="none" d="M 25 0.5 L 38.422777738806246 0.5 L 38.422777738806246 -0.5 L 25 -0.5 Z M 83.98527773880625 0.5 L 97.40805547761249 0.5 L 97.40805547761249 3.5 L 104.40805547761249 0 L 97.40805547761249 -3.5 L 97.40805547761249 -0.5 L 83.98527773880625 -0.5 Z"/><text text-anchor="middle" pointer-events="none" font-size="8px" fill="#000000" x="61.204027738806246" y="3" transform="rotate(180 61.204027738806246 0)" font-family="sans-serif">ACTED_IN</text></g><g class="relationship" transform="translate(-239.9232999188255 -52.42232686699284) rotate(466.703612936491)"><path class="outline" fill="#A5ABB6" stroke="none" d="M 25 0.5 L 46.14459927933065 0.5 L 46.14459927933065 -0.5 L 25 -0.5 Z M 91.70709927933065 0.5 L 112.8516985586613 0.5 L 112.8516985586613 3.5 L 119.8516985586613 0 L 112.8516985586613 -3.5 L 112.8516985586613 -0.5 L 91.70709927933065 -0.5 Z"/><text text-anchor="middle" pointer-events="none" font-size="8px" fill="#000000" x="68.92584927933065" y="3" transform="rotate(180 68.92584927933065 0)" font-family="sans-serif">ACTED_IN</text></g><g class="relationship" transform="translate(-239.9232999188255 -52.42232686699284) rotate(426.6097223544035)"><path class="outline" fill="#A5ABB6" stroke="none" d="M 25 0.5 L 46.19006033044268 0.5 L 46.19006033044268 -0.5 L 25 -0.5 Z M 91.75256033044268 0.5 L 112.94262066088535 0.5 L 112.94262066088535 3.5 L 119.94262066088535 0 L 112.94262066088535 -3.5 L 112.94262066088535 -0.5 L 91.75256033044268 -0.5 Z"/><text text-anchor="middle" pointer-events="none" font-size="8px" fill="#000000" x="68.97131033044268" y="3" font-family="sans-serif">ACTED_IN</text></g><g class="relationship" transform="translate(-41.59516622814122 106.69017311035353) rotate(190.49513528910643)"><path class="outline" fill="#A5ABB6" stroke="none" d="M 25 0.5 L 45.309969395704584 0.5 L 45.309969395704584 -0.5 L 25 -0.5 Z M 90.87246939570458 0.5 L 111.18243879140917 0.5 L 111.18243879140917 3.5 L 118.18243879140917 0 L 111.18243879140917 -3.5 L 111.18243879140917 -0.5 L 90.87246939570458 -0.5 Z"/><text text-anchor="middle" pointer-events="none" font-size="8px" fill="#000000" x="68.09121939570458" y="3" transform="rotate(180 68.09121939570458 0)" font-family="sans-serif">ACTED_IN</text></g></g><g class="layer nodes"><g class="node" aria-label="graph-node71" transform="translate(-7.357312873084902,348.95683744475826)"><circle class="outline" cx="0" cy="0" r="25" fill="#C990C0" stroke="#b261a5" stroke-width="2px"/><text class="caption" text-anchor="middle" pointer-events="none" x="0" y="0" font-size="10px" fill="#FFFFFF" font-family="sans-serif"> Tom</text><text class="caption" text-anchor="middle" pointer-events="none" x="0" y="10" font-size="10px" fill="#FFFFFF" font-family="sans-serif"> Hanks</text></g><g class="node" aria-label="graph-node105" transform="translate(136.27112297101252,341.98929090864596)"><circle class="outline" cx="0" cy="0" r="25" fill="#F79767" stroke="#f36924" stroke-width="2px"/><text class="caption" text-anchor="middle" pointer-events="none" x="0" y="0" font-size="10px" fill="#FFFFFF" font-family="sans-serif"> Cloud</text><text class="caption" text-anchor="middle" pointer-events="none" x="0" y="10" font-size="10px" fill="#FFFFFF" font-family="sans-serif"> Atlas</text></g><g class="node" aria-label="graph-node107" transform="translate(140.9371761902876,198.15745316617486)"><circle class="outline" cx="0" cy="0" r="25" fill="#C990C0" stroke="#b261a5" stroke-width="2px"/><text class="caption" text-anchor="middle" pointer-events="none" x="0" y="0" font-size="10px" fill="#FFFFFF" font-family="sans-serif"> Jim</text><text class="caption" text-anchor="middle" pointer-events="none" x="0" y="10" font-size="10px" fill="#FFFFFF" font-family="sans-serif"> Broad…</text></g><g class="node" aria-label="graph-node106" transform="translate(265.3808449824494,277.31529754208833)"><circle class="outline" cx="0" cy="0" r="25" fill="#C990C0" stroke="#b261a5" stroke-width="2px"/><text class="caption" text-anchor="middle" pointer-events="none" x="0" y="0" font-size="10px" fill="#FFFFFF" font-family="sans-serif"> Halle</text><text class="caption" text-anchor="middle" pointer-events="none" x="0" y="10" font-size="10px" fill="#FFFFFF" font-family="sans-serif"> Berry</text></g><g class="node" aria-label="graph-node119" transform="translate(319.6340592756513,-19.821790254027487)"><circle class="outline" cx="0" cy="0" r="25" fill="#C990C0" stroke="#b261a5" stroke-width="2px"/><text class="caption" text-anchor="middle" pointer-events="none" x="0" y="5" font-size="10px" fill="#FFFFFF" font-family="sans-serif"> John Hurt</text></g><g class="node" aria-label="graph-node116" transform="translate(280.8098132779154,-157.99048934390967)"><circle class="outline" cx="0" cy="0" r="25" fill="#F79767" stroke="#f36924" stroke-width="2px"/><text class="caption" text-anchor="middle" pointer-events="none" x="0" y="0" font-size="10px" fill="#FFFFFF" font-family="sans-serif"> V for</text><text class="caption" text-anchor="middle" pointer-events="none" x="0" y="10" font-size="10px" fill="#FFFFFF" font-family="sans-serif"> Vende…</text></g><g class="node" aria-label="graph-node118" transform="translate(287.08624025081565,-301.23594648840134)"><circle class="outline" cx="0" cy="0" r="25" fill="#C990C0" stroke="#b261a5" stroke-width="2px"/><text class="caption" text-anchor="middle" pointer-events="none" x="0" y="0" font-size="10px" fill="#FFFFFF" font-family="sans-serif"> Stephen</text><text class="caption" text-anchor="middle" pointer-events="none" x="0" y="10" font-size="10px" fill="#FFFFFF" font-family="sans-serif"> Rea</text></g><g class="node" aria-label="graph-node117" transform="translate(140.07436151614155,-126.45569654047031)"><circle class="outline" cx="0" cy="0" r="25" fill="#C990C0" stroke="#b261a5" stroke-width="2px"/><text class="caption" text-anchor="middle" pointer-events="none" x="0" y="0" font-size="10px" fill="#FFFFFF" font-family="sans-serif"> Natalie</text><text class="caption" text-anchor="middle" pointer-events="none" x="0" y="10" font-size="10px" fill="#FFFFFF" font-family="sans-serif"> Portm…</text></g><g class="node" aria-label="graph-node120" transform="translate(166.2753302762456,-250.30855934142903)"><circle class="outline" cx="0" cy="0" r="25" fill="#C990C0" stroke="#b261a5" stroke-width="2px"/><text class="caption" text-anchor="middle" pointer-events="none" x="0" y="5" font-size="10px" fill="#FFFFFF" font-family="sans-serif"> Ben Miles</text></g><g class="node" aria-label="graph-node3" transform="translate(-140.61720426280795,-52.402113681875726)"><circle class="outline" cx="0" cy="0" r="25" fill="#C990C0" stroke="#b261a5" stroke-width="2px"/><text class="caption" text-anchor="middle" pointer-events="none" x="0" y="0" font-size="10px" fill="#FFFFFF" font-family="sans-serif"> Laurence</text><text class="caption" text-anchor="middle" pointer-events="none" x="0" y="10" font-size="10px" fill="#FFFFFF" font-family="sans-serif"> Fishb…</text></g><g class="node" aria-label="graph-node10" transform="translate(-245.98703488374687,-181.68823861781763)"><circle class="outline" cx="0" cy="0" r="25" fill="#F79767" stroke="#f36924" stroke-width="2px"/><text class="caption" text-anchor="middle" pointer-events="none" x="0" y="-5" font-size="10px" fill="#FFFFFF" font-family="sans-serif"> The</text><text class="caption" text-anchor="middle" pointer-events="none" x="0" y="5" font-size="10px" fill="#FFFFFF" font-family="sans-serif"> Matrix</text><text class="caption" text-anchor="middle" pointer-events="none" x="0" y="15" font-size="10px" fill="#FFFFFF" font-family="sans-serif"> Rev…</text></g><g class="node" aria-label="graph-node2" transform="translate(-337.46763476545783,-32.9601475048903)"><circle class="outline" cx="0" cy="0" r="25" fill="#C990C0" stroke="#b261a5" stroke-width="2px"/><text class="caption" text-anchor="middle" pointer-events="none" x="0" y="5" font-size="10px" fill="#FFFFFF" font-family="sans-serif"> Carrie-A…</text></g><g class="node" aria-label="graph-node1" transform="translate(-239.9232999188255,-52.42232686699284)"><circle class="outline" cx="0" cy="0" r="25" fill="#C990C0" stroke="#b261a5" stroke-width="2px"/><text class="caption" text-anchor="middle" pointer-events="none" x="0" y="0" font-size="10px" fill="#FFFFFF" font-family="sans-serif"> Keanu</text><text class="caption" text-anchor="middle" pointer-events="none" x="0" y="10" font-size="10px" fill="#FFFFFF" font-family="sans-serif"> Reeves</text></g><g class="node" aria-label="graph-node9" transform="translate(-281.55670799130405,86.3172634005287)"><circle class="outline" cx="0" cy="0" r="25" fill="#F79767" stroke="#f36924" stroke-width="2px"/><text class="caption" text-anchor="middle" pointer-events="none" x="0" y="-5" font-size="10px" fill="#FFFFFF" font-family="sans-serif"> The</text><text class="caption" text-anchor="middle" pointer-events="none" x="0" y="5" font-size="10px" fill="#FFFFFF" font-family="sans-serif"> Matrix</text><text class="caption" text-anchor="middle" pointer-events="none" x="0" y="15" font-size="10px" fill="#FFFFFF" font-family="sans-serif"> Rel…</text></g><g class="node" aria-label="graph-node8" transform="translate(-41.59516622814122,106.69017311035353)"><circle class="outline" cx="0" cy="0" r="25" fill="#C990C0" stroke="#b261a5" stroke-width="2px"/><text class="caption" text-anchor="middle" pointer-events="none" x="0" y="0" font-size="10px" fill="#FFFFFF" font-family="sans-serif"> Emil</text><text class="caption" text-anchor="middle" pointer-events="none" x="0" y="10" font-size="10px" fill="#FFFFFF" font-family="sans-serif"> Eifrem</text></g><g class="node" aria-label="graph-node0" transform="translate(-182.38221676507942,80.6091995977478)"><circle class="outline" cx="0" cy="0" r="25" fill="#F79767" stroke="#f36924" stroke-width="2px"/><text class="caption" text-anchor="middle" pointer-events="none" x="0" y="0" font-size="10px" fill="#FFFFFF" font-family="sans-serif"> The</text><text class="caption" text-anchor="middle" pointer-events="none" x="0" y="10" font-size="10px" fill="#FFFFFF" font-family="sans-serif"> Matrix</text></g></g></svg>