<svg xmlns="http://www.w3.org/2000/svg" width="318.26312255859375" height="297.2137451171875" viewBox="-160.98988342285156 -146.2051544189453 318.26312255859375 297.2137451171875"><title>Neo4j Graph Visualization</title><desc>Created using Neo4j (http://www.neo4j.com/)</desc><g class="layer relationships"><g class="relationship" transform="translate(-131.98988936593028 115.30532874117428) rotate(362.6918413054191)"><path class="outline" fill="#A5ABB6" stroke="none" d="M 24.018736134675446,-6.953439040707552 L 24.277555179777966,-5.987513214418485 A 176.53436859251647 176.53436859251647 0 0 1 44.74843810341375,-10.192064583894961 L 44.605578817800826,-11.181807593223226 A 177.53436859251647 177.53436859251647 0 0 0 24.018736134675446,-6.953439040707552 Z M 91.0646138670241,-11.744853369045472 L 90.9457827801331,-10.751938884918928 A 176.53436859251647 176.53436859251647 0 0 1 111.51254980684246,-7.044730506525463 L 110.80654782686425,-4.128986827073023 L 118.43361872222785,-5.883349833151724 L 112.45388578014673,-10.932388745795382 L 111.74788380016852,-8.016645066342942 A 177.53436859251647 177.53436859251647 0 0 0 91.0646138670241,-11.744853369045472"/><text text-anchor="middle" pointer-events="none" font-size="8px" fill="#000000" x="67.82265665081964" y="-9.489776451479457" font-family="sans-serif">twowheeler</text></g><g class="relationship" transform="translate(10.584099524138756 122.0086003869867) rotate(318.31326193342875)"><path class="outline" fill="#A5ABB6" stroke="none" d="M 24.018736134675446,-6.953439040707552 L 24.277555179777966,-5.987513214418485 A 182.0745811912075 182.0745811912075 0 0 1 46.14906974453031,-10.431826580553292 L 46.0103746311796,-11.422161708443156 A 183.0745811912075 183.0745811912075 0 0 0 24.018736134675446,-6.953439040707552 Z M 92.47354317537594,-11.97485469980154 L 92.35844462582776,-10.981500621996503 A 182.0745811912075 182.0745811912075 0 0 1 114.32948837374958,-7.058707321364487 L 113.62218101093532,-4.143280029438186 L 121.25003661538,-5.894228023452239 L 115.27256485750195,-10.945943710599554 L 114.56525749468769,-8.030516418673253 A 183.0745811912075 183.0745811912075 0 0 0 92.47354317537594,-11.97485469980154"/><text text-anchor="middle" pointer-events="none" font-size="8px" fill="#000000" x="69.23029996619171" y="-9.678638524835435" font-family="sans-serif">twowheeler</text></g><g class="relationship" transform="translate(119.27615864658068 25.212628515454355) rotate(273.61477705230396)"><path class="outline" fill="#A5ABB6" stroke="none" d="M 24.018736134675446,6.953439040707552 L 24.277555179777966,5.987513214418485 A 176.47567762938525 176.47567762938525 0 0 0 44.73360885124129,10.189508437611124 L 44.59070410065375,11.179244883469067 A 177.47567762938525 177.47567762938525 0 0 1 24.018736134675446,6.953439040707552 Z M 91.04969261927887,11.742402344043654 L 90.93082071889543,10.749492745288933 A 176.47567762938525 176.47567762938525 0 0 0 111.48271880148944,7.044579673678714 L 110.77673090879405,4.1288325832458845 L 118.4037933279486,5.88323243912827 L 112.42403599174996,10.932242460922488 L 111.71804809905457,8.016495370489658 A 177.47567762938525 177.47567762938525 0 0 1 91.04969261927887,11.742402344043654"/><text text-anchor="middle" pointer-events="none" font-size="8px" fill="#000000" x="67.80775005305277" y="15.48777573365274" font-family="sans-serif">twowheeler</text></g><g class="relationship" transform="translate(10.584099524138756 122.0086003869867) rotate(257.68011380056316)"><path class="outline" fill="#A5ABB6" stroke="none" d="M 24.018736134675446,-6.953439040707552 L 24.277555179777966,-5.987513214418485 A 187.17071409285217 187.17071409285217 0 0 1 47.43877157127167,-10.649845494108973 L 47.30369633140999,-11.640680838440375 A 188.17071409285217 188.17071409285217 0 0 0 24.018736134675446,-6.953439040707552 Z M 93.77025252726877,-12.184171900945756 L 93.65838946740688,-11.190448269427236 A 187.17071409285217 187.17071409285217 0 0 1 116.9223195726181,-7.071122708162616 L 116.21385266665368,-4.155976975415588 L 123.8424041000219,-5.903890883036812 L 117.86694211390397,-10.957983685158652 L 117.15847520793956,-8.042837952411626 A 188.17071409285217 188.17071409285217 0 0 0 93.77025252726877,-12.184171900945756"/><text text-anchor="middle" pointer-events="none" font-size="8px" fill="#000000" x="70.52598054139206" y="-9.852364755726938" transform="rotate(180 70.52598054139206 -12.852364755726938)" font-family="sans-serif">twowheeler</text></g><g class="relationship" transform="translate(10.584099524138756 122.0086003869867) rotate(257.68011380056316)"><path class="outline" fill="#A5ABB6" stroke="none" d="M 24.018736134675446,6.953439040707552 L 24.277555179777966,5.987513214418485 A 187.17071409285217 187.17071409285217 0 0 0 60.8974449553352,11.99138724129807 L 60.8342755873365,12.989390062409655 A 188.17071409285217 188.17071409285217 0 0 1 24.018736134675446,6.953439040707552 Z M 80.21182913438187,13.216037527344383 L 80.17201991912727,12.216830228341422 A 187.17071409285217 187.17071409285217 0 0 0 116.9223195726181,7.071122708162616 L 116.21385266665368,4.155976975415588 L 123.8424041000219,5.903890883036812 L 117.86694211390397,10.957983685158652 L 117.15847520793956,8.042837952411626 A 188.17071409285217 188.17071409285217 0 0 1 80.21182913438187,13.216037527344383"/><text text-anchor="middle" pointer-events="none" font-size="8px" fill="#000000" x="70.52598054139212" y="15.852364755726938" transform="rotate(180 70.52598054139212 12.852364755726938)" font-family="sans-serif">trek</text></g><g class="relationship" transform="translate(10.584099524138756 122.0086003869867) rotate(318.31326193342875)"><path class="outline" fill="#A5ABB6" stroke="none" d="M 24.018736134675446,6.953439040707552 L 24.277555179777966,5.987513214418485 A 182.0745811912075 182.0745811912075 0 0 0 59.602977876638995,11.808849404379117 L 59.53817505535941,12.806747492539529 A 183.0745811912075 183.0745811912075 0 0 1 24.018736134675446,6.953439040707552 Z M 78.91663507654862,13.037259947299077 L 78.87558781260556,12.038102741388627 A 182.0745811912075 182.0745811912075 0 0 0 114.32948837374958,7.058707321364487 L 113.62218101093532,4.143280029438186 L 121.25003661538,5.894228023452239 L 115.27256485750195,10.945943710599554 L 114.56525749468769,8.030516418673253 A 183.0745811912075 183.0745811912075 0 0 1 78.91663507654862,13.037259947299077"/><text text-anchor="middle" pointer-events="none" font-size="8px" fill="#000000" x="69.23029996619172" y="15.678638524835435" font-family="sans-serif">trek</text></g><g class="relationship" transform="translate(119.27615864658068 25.212628515454355) rotate(273.61477705230396)"><path class="outline" fill="#A5ABB6" stroke="none" d="M 24.018736134675446,-6.953439040707552 L 24.277555179777966,-5.987513214418485 A 176.47567762938525 176.47567762938525 0 0 1 58.18184922806175,-11.607775099590242 L 58.11514897521278,-12.605548158090954 A 177.47567762938525 177.47567762938525 0 0 0 24.018736134675446,-6.953439040707552 Z M 77.49464845602587,-12.84045877631172 L 77.45215346736528,-11.8413620963359 A 176.47567762938525 176.47567762938525 0 0 1 111.48271880148944,-7.044579673678714 L 110.77673090879405,-4.1288325832458845 L 118.4037933279486,-5.88323243912827 L 112.42403599174996,-10.932242460922488 L 111.71804809905457,-8.016495370489658 A 177.47567762938525 177.47567762938525 0 0 0 77.49464845602587,-12.84045877631172"/><text text-anchor="middle" pointer-events="none" font-size="8px" fill="#000000" x="67.80775005305274" y="-9.48777573365274" font-family="sans-serif">trek</text></g><g class="relationship" transform="translate(-21.023450150431845 -22.715362821273068) rotate(378.86076863059276)"><path class="outline" fill="#A5ABB6" stroke="none" d="M 21.40063509461097,12.933012701892217 L 21.90063509461097,12.06698729810778 A 101.76766613433472 101.76766613433472 0 0 0 47.621672013427826,22.541369369667493 L 47.37441473511769,23.510319233346024 A 102.76766613433472 102.76766613433472 0 0 1 21.40063509461097,12.933012701892217 Z M 93.65395605372086,24.55993010373588 L 93.45088159774691,23.580766805132996 A 101.76766613433472 101.76766613433472 0 0 0 119.6203412620649,14.283250962835057 L 118.23967071474796,11.619841711561131 L 126.06507460625689,11.505587894307846 L 121.46123532515416,17.834463297866957 L 120.08056477783722,15.171054046593033 A 102.76766613433472 102.76766613433472 0 0 1 93.65395605372086,24.55993010373588"/><text text-anchor="middle" pointer-events="none" font-size="8px" fill="#000000" x="70.46565395346656" y="29.174977532287073" font-family="sans-serif">twowheeler</text></g><g class="relationship" transform="translate(-21.023450150431845 -22.715362821273068) rotate(378.86076863059276)"><path class="outline" fill="#A5ABB6" stroke="none" d="M 25 0.5 L 60.962107100103125 0.5 L 60.962107100103125 -0.5 L 25 -0.5 Z M 80.29804460010313 0.5 L 116.26015170020625 0.5 L 116.26015170020625 3.5 L 123.26015170020625 0 L 116.26015170020625 -3.5 L 116.26015170020625 -0.5 L 80.29804460010313 -0.5 Z"/><text text-anchor="middle" pointer-events="none" font-size="8px" fill="#000000" x="70.63007585010313" y="3" font-family="sans-serif">trek</text></g><g class="relationship" transform="translate(-21.023450150431845 -22.715362821273068) rotate(378.86076863059276)"><path class="outline" fill="#A5ABB6" stroke="none" d="M 21.40063509461097,-12.933012701892217 L 21.90063509461097,-12.06698729810778 A 101.76766613433472 101.76766613433472 0 0 1 59.562228453396585,-24.838658751258194 L 59.43230270968415,-25.830182478216244 A 102.76766613433472 102.76766613433472 0 0 0 21.40063509461097,-12.933012701892217 Z M 81.50329223377919,-26.33074816803736 L 81.41845208512188,-25.33435359299402 A 101.76766613433472 101.76766613433472 0 0 1 119.6203412620649,-14.283250962835057 L 118.23967071474796,-11.619841711561131 L 126.06507460625689,-11.505587894307846 L 121.46123532515416,-17.834463297866957 L 120.08056477783722,-15.171054046593033 A 102.76766613433472 102.76766613433472 0 0 0 81.50329223377919,-26.33074816803736"/><text text-anchor="middle" pointer-events="none" font-size="8px" fill="#000000" x="70.46565395346651" y="-23.174977532287073" font-family="sans-serif">road</text></g><g class="relationship" transform="translate(-131.98988936593028 115.30532874117428) rotate(362.6918413054191)"><path class="outline" fill="#A5ABB6" stroke="none" d="M 24.018736134675446,6.953439040707552 L 24.277555179777966,5.987513214418485 A 176.53436859251647 176.53436859251647 0 0 0 58.1967404180233,11.609885903592755 L 58.13006064590586,12.607660331001256 A 177.53436859251647 177.53436859251647 0 0 1 24.018736134675446,6.953439040707552 Z M 77.50954898512117,12.84252399176026 L 77.46706967726523,11.843426644949602 A 176.53436859251647 176.53436859251647 0 0 0 111.51254980684246,7.044730506525463 L 110.80654782686425,4.128986827073023 L 118.43361872222785,5.883349833151724 L 112.45388578014673,10.932388745795382 L 111.74788380016852,8.016645066342942 A 177.53436859251647 177.53436859251647 0 0 1 77.50954898512117,12.84252399176026"/><text text-anchor="middle" pointer-events="none" font-size="8px" fill="#000000" x="67.8226566508197" y="15.489776451479457" font-family="sans-serif">trek</text></g></g><g class="layer nodes"><g class="node" aria-label="graph-node182" transform="translate(10.584099524138756,122.0086003869867)"><circle class="outline" cx="0" cy="0" r="25" fill="#D9C8AE" stroke="#c0a378" stroke-width="2px"/><text class="caption" text-anchor="middle" pointer-events="none" x="0" y="5" font-size="10px" fill="#2A2C34" font-family="sans-serif"> Sirikhola</text></g><g class="node" aria-label="graph-node183" transform="translate(119.27615864658068,25.212628515454355)"><circle class="outline" cx="0" cy="0" r="25" fill="#D9C8AE" stroke="#c0a378" stroke-width="2px"/><text class="caption" text-anchor="middle" pointer-events="none" x="0" y="5" font-size="10px" fill="#2A2C34" font-family="sans-serif"> Gurdum</text></g><g class="node" aria-label="graph-node181" transform="translate(128.2732026470999,-117.2051523780741)"><circle class="outline" cx="0" cy="0" r="25" fill="#F16667" stroke="#eb2728" stroke-width="2px"/><text class="caption" text-anchor="middle" pointer-events="none" x="0" y="5" font-size="10px" fill="#FFFFFF" font-family="sans-serif"> Sandakp…</text></g><g class="node" aria-label="graph-node186" transform="translate(-21.023450150431845,-22.715362821273068)"><circle class="outline" cx="0" cy="0" r="25" fill="#D9C8AE" stroke="#c0a378" stroke-width="2px"/><text class="caption" text-anchor="middle" pointer-events="none" x="0" y="5" font-size="10px" fill="#2A2C34" font-family="sans-serif"> Rammam</text></g><g class="node" aria-label="graph-node178" transform="translate(-131.98988936593028,115.30532874117428)"><circle class="outline" cx="0" cy="0" r="25" fill="#57C7E3" stroke="#23b3d7" stroke-width="2px"/><text class="caption" text-anchor="middle" pointer-events="none" x="0" y="5" font-size="10px" fill="#2A2C34" font-family="sans-serif"> Rimbik</text></g></g></svg>